<?xml version="1.0" encoding="UTF-8" standalone="no"?>
<svg width="512" height="512" viewBox="0 0 512 512" fill="none" xmlns="http://www.w3.org/2000/svg">
  <path d="M96 64C79.458 64 66 77.458 66 94V418C66 434.542 79.458 448 96 448H416C432.542 448 446 434.542 446 418V150L360 64H96Z" fill="#E6E6E6"/>
  <path d="M446 150H380C368.954 150 360 141.046 360 130V64L446 150Z" fill="#B3B3B3"/>
  <path d="M330 280C330 324.183 294.183 360 250 360C205.817 360 170 324.183 170 280C170 235.817 205.817 200 250 200C294.183 200 330 235.817 330 280Z" fill="#2B5797"/>
  <path d="M250 220V280H310C310 246.863 283.137 220 250 220Z" fill="#F7B548"/>
  <path d="M310 280L250 280V340C283.137 340 310 313.137 310 280Z" fill="#87CDD2"/>
  <path d="M250 280H190C190 246.863 216.863 220 250 220V280Z" fill="#61A8DE"/>
  <path d="M190 280L250 280V340C216.863 340 190 313.137 190 280Z" fill="#5B5EAD"/>
  <path d="M230 190V210H270V190H230Z" fill="#E04F5F"/>
  <path d="M230 350V370H270V350H230Z" fill="#87CDD2"/>
  <path d="M330 260V300H350V260H330Z" fill="#5B5EAD"/>
  <path d="M150 260V300H170V260H150Z" fill="#F7B548"/>
</svg>