<?xml version="1.0" encoding="UTF-8" standalone="no"?>
<svg width="512" height="512" viewBox="0 0 512 512" fill="none" xmlns="http://www.w3.org/2000/svg">
  <rect width="512" height="512" rx="100" fill="#2B5797"/>
  <path d="M256 104C171.103 104 102 173.103 102 258C102 342.897 171.103 412 256 412C340.897 412 410 342.897 410 258C410 173.103 340.897 104 256 104ZM256 388C184.215 388 126 329.785 126 258C126 186.215 184.215 128 256 128C327.785 128 386 186.215 386 258C386 329.785 327.785 388 256 388Z" fill="#FFFFFF"/>
  <path d="M358 258C358 314.885 312.885 360 256 360C199.115 360 154 314.885 154 258C154 201.115 199.115 156 256 156C312.885 156 358 201.115 358 258Z" fill="#E04F5F"/>
  <path d="M256 156V258H358C358 201.115 312.885 156 256 156Z" fill="#F7B548"/>
  <path d="M256 258L358 258C358 314.885 312.885 360 256 360L256 258Z" fill="#87CDD2"/>
  <path d="M256 258H154C154 201.115 199.115 156 256 156V258Z" fill="#61A8DE"/>
  <path d="M154 258L256 258V360C199.115 360 154 314.885 154 258Z" fill="#5B5EAD"/>
  <path d="M92 179L122 179L122 337L92 337L92 179Z" fill="#E04F5F"/>
  <path d="M390 179L420 179L420 337L390 337L390 179Z" fill="#5B5EAD"/>
  <path d="M179 92L337 92L337 122L179 122L179 92Z" fill="#61A8DE"/>
  <path d="M179 390L337 390L337 420L179 420L179 390Z" fill="#87CDD2"/>
</svg>